<?xml version="1.0" encoding="UTF-8"?>
<svg width="375px" height="240px" viewBox="0 0 375 240" version="1.1" xmlns="http://www.w3.org/2000/svg" xmlns:xlink="http://www.w3.org/1999/xlink">
    <title>howitworks2</title>
    <g id="howitworks2" stroke="none" stroke-width="1" fill="none" fill-rule="evenodd">
        <g id="howitworks2" transform="translate(96.000000, 27.000000)">
            <path d="M73.0923077,110.230769 C83.7655385,104.030154 98.4461538,101.551385 112.346462,102.792 C110.547077,97.96 106.396923,93.3593846 99.896,89.6055385 C81.9981538,79.2670769 53.0726154,79.2670769 35.2830769,89.6055385 C17.4935385,99.944 17.6043077,116.682462 35.5021538,127.020923 C42.6627692,131.153846 51.5883077,133.632615 60.856,134.459692 C57.6929231,125.996923 61.7692308,116.815385 73.0923077,110.230769 Z" id="Path" fill="#66ABFF" fill-rule="nonzero" opacity="0.4"></path>
            <path d="M137.695385,110.230769 C130.534769,106.097846 121.609231,103.616615 112.341538,102.792 C115.494769,111.262154 111.420923,120.443692 100.092923,127.028308 C89.4270769,133.226462 74.7538462,135.705231 60.856,134.467077 C62.6553846,139.299077 66.808,143.899692 73.3089231,147.653538 C91.2067692,157.992 120.122462,157.992 137.902154,147.653538 C155.681846,137.315077 155.593231,120.569231 137.695385,110.230769 Z" id="Path" fill="#DAA2FF" fill-rule="nonzero" opacity="0.5" style="mix-blend-mode: multiply;"></path>
            <path d="M100.088,127.030769 C111.411077,120.446154 115.489846,111.264615 112.336615,102.794462 C98.4338462,101.563692 83.7556923,104.025231 73.0824615,110.233231 C61.7593846,116.815385 57.6929231,125.987077 60.8510769,134.469538 C74.7489231,135.707692 89.4221538,133.228923 100.088,127.030769 Z" id="Path" fill="#FFBE00" fill-rule="nonzero" style="mix-blend-mode: multiply;"></path>
            <g id="friend" transform="translate(86.876923, 46.476923)" fill-rule="nonzero">
                <g id="depth" fill="#724292">
                    <path d="M27.3009231,82.4270769 L24.4947692,80.9009231 C23.9420841,80.5763931 23.6236533,79.9643938 23.6750769,79.3255385 L26.4812308,80.8516923 C26.4304096,81.4904256 26.7486837,82.1021236 27.3009231,82.4270769" id="Path"></path>
                    <polygon id="Path" points="26.4812308 80.8516923 23.6750769 79.3255385 23.7538462 78.4246154 26.56 79.9507692"></polygon>
                    <path d="M10.6461538,84.9230769 L7.84,83.3969231 C7.11630769,83.0178462 6.80861538,82.0923077 7.10153846,81.1815385 L9.90769231,82.7076923 C9.60738462,83.6110769 9.90769231,84.5366154 10.6461538,84.9230769" id="Path"></path>
                    <polygon id="Path" points="9.91261538 82.7052308 7.10646154 81.1790769 7.77353846 79.1630769 10.5796923 80.6892308"></polygon>
                    <polygon id="Path" points="10.5796923 80.6892308 7.77353846 79.1630769 8.39630769 77.1987692 11.2024615 78.7249231"></polygon>
                    <path d="M26.56,79.9507692 L23.7538462,78.4246154 C24.4258462,70.9144615 25.5458462,58.4024615 21.4030769,45.9052308 L24.2092308,47.4313846 C28.352,59.9286154 27.232,72.4406154 26.56,79.9507692" id="Path"></path>
                    <path d="M33.6147692,44.3544615 L30.8086154,42.8307692 C30.3624841,42.5640978 30.1319629,42.0459175 30.2326154,41.536 C30.5274072,39.4695925 30.6574579,37.3830198 30.6215385,35.296 C30.5938895,33.334787 30.3461849,31.3828747 29.8830769,29.4769231 C29.6204975,28.3993462 29.2578988,27.3486341 28.8,26.3384615 L31.6061538,27.8646154 C32.0620305,28.8764405 32.4245613,29.9277798 32.6892308,31.0055385 C33.1523388,32.9114901 33.4000434,34.8634024 33.4276923,36.8246154 C33.4611948,38.9115801 33.331156,40.9979625 33.0387692,43.0646154 C32.9392403,43.5737263 33.1696123,44.0905864 33.6147692,44.3569231" id="Path"></path>
                    <polyline id="Path" points="30.9809231 16.6030769 28.1747692 15.0769231 28.32 15.1507692 31.1236923 16.6769231 30.9809231 16.6030769"></polyline>
                    <path d="M11.2024615,78.7249231 L8.39630769,77.1987692 C8.80738462,75.872 9.20615385,74.5747692 9.58523077,73.2603077 C10.048,71.6701538 10.3926154,70.4492308 10.6929231,69.3021538 C11.0596923,67.9729231 11.4092308,66.6412308 11.7243077,65.3390769 C11.9015385,64.6547692 12.0664615,63.9630769 12.2166154,63.3526154 C12.3864615,62.6707692 12.5390769,61.9963077 12.6793846,61.3686154 C13.0289231,59.8227692 13.2996923,58.56 13.5310769,57.3932308 C14.0233846,54.8996923 14.4664615,52.2978462 14.8578462,49.44 C15.0350769,48.1230769 15.1926154,46.7889231 15.3230769,45.4744615 C15.4436923,44.2781538 15.5446154,42.9858462 15.6406154,41.5212308 C15.7243077,40.1723077 15.7809231,38.8504615 15.8129231,37.5827692 C15.8449231,36.3150769 15.8375385,35.008 15.8129231,33.6836923 C15.7563653,30.6659559 15.5278924,27.6538941 15.1286154,24.6621538 L17.9323077,26.1858462 C18.332321,29.1783731 18.5616151,32.1912494 18.6190769,35.2098462 C18.6412308,36.5341538 18.6412308,37.8461538 18.6190769,39.1089231 C18.5969231,40.3716923 18.5304615,41.6886154 18.4467692,43.0473846 C18.3507692,44.512 18.2473846,45.8043077 18.1292308,47.0006154 C17.9963077,48.3150769 17.8412308,49.6492308 17.6615385,50.9661538 C17.2726154,53.824 16.8393846,56.4258462 16.3372308,58.9193846 C16.0910769,60.0861538 15.8326154,61.3489231 15.4830769,62.8947692 C15.3452308,63.5224615 15.1926154,64.1969231 15.0227692,64.8787692 C14.8750769,65.4892308 14.7101538,66.1809231 14.5304615,66.8652308 C14.2129231,68.1649231 13.8658462,69.4990769 13.4990769,70.8283077 C13.1963077,71.9753846 12.8541538,73.1963077 12.3889231,74.7864615 C12.0123077,76.1058462 11.6110769,77.4030769 11.2024615,78.7249231" id="Path"></path>
                    <g id="Group" transform="translate(16.984615, 13.292308)">
                        <path d="M2.86523077,2.04553846 L0.0615384615,0.521846154 C3.73907692,0 6.34830769,0.243692308 8.37169231,0.768 L11.1778462,2.29415385 C9.15446154,1.76984615 6.54523077,1.52615385 2.86523077,2.048" id="Path"></path>
                        <path d="M11.1778462,2.29415385 L8.37169231,0.768 C9.29841714,1.01060605 10.2032963,1.33007203 11.0769231,1.72307692 L13.8806154,3.24923077 C13.0066499,2.85301824 12.1008893,2.53106155 11.1729231,2.28676923" id="Path"></path>
                    </g>
                    <path d="M10.4763077,32.7729231 L7.67015385,31.2467692 C7.55459398,31.1834853 7.44644038,31.1075301 7.34769231,31.0203077 L10.1538462,32.5464615 C10.2525942,32.633684 10.3607478,32.7096392 10.4763077,32.7729231" id="Path"></path>
                    <g id="Group" transform="translate(14.523077, 13.784615)">
                        <path d="M3.01292308,3.18030769 L0.206769231,1.65415385 C0.236307692,1.60738462 0.268307692,1.56061538 0.300307692,1.51630769 L3.104,3.04246154 C3.072,3.08676923 3.04246154,3.13353846 3.01292308,3.18030769" id="Path"></path>
                        <path d="M3.104,3.04246154 L0.300307692,1.51630769 C0.385341611,1.39454165 0.477394895,1.27783124 0.576,1.16676923 L3.37969231,2.69292308 C3.28182839,2.80460347 3.18980797,2.92127223 3.104,3.04246154" id="Path"></path>
                        <path d="M3.37969231,2.69292308 L0.576,1.16676923 C0.672278342,1.05655861 0.775023699,0.952169325 0.883692308,0.854153846 L3.68738462,2.38030769 C3.58153846,2.47876923 3.47815385,2.58215385 3.37969231,2.69292308" id="Path"></path>
                        <path d="M3.69230769,2.38030769 L0.888615385,0.854153846 C1.00384558,0.750554518 1.12552533,0.654361746 1.25292308,0.566153846 L4.05907692,2.09230769 C3.93133046,2.18110245 3.8088665,2.27726542 3.69230769,2.38030769" id="Path"></path>
                        <path d="M4.05415385,2.09230769 L1.248,0.566153846 C1.40442714,0.458316243 1.56902913,0.362847087 1.74030769,0.280615385 L4.54646154,1.80676923 C4.3746875,1.88806116 4.21001129,1.98357336 4.05415385,2.09230769" id="Path"></path>
                        <path d="M4.54646154,1.80676923 L1.74030769,0.280615385 C1.98941573,0.164872127 2.25255938,0.0821225511 2.52307692,0.0344615385 L5.32676923,1.55815385 C5.05742759,1.60737707 4.79529362,1.69006918 4.54646154,1.80430769" id="Path"></path>
                    </g>
                    <polygon id="Path" points="11.072 27.0055385 8.26830769 25.4793846 14.7298462 15.4387692 17.536 16.9649231"></polygon>
                    <polygon id="Path" points="10.1538462 32.5464615 7.34769231 31.0203077 0.566153846 25.0633846 3.37230769 26.5895385"></polygon>
                    <g id="Group" transform="translate(0.000000, 21.907692)">
                        <path d="M3.37230769,4.67692308 L0.566153846,3.15076923 C0.26447383,2.87225853 0.0923464694,2.48073567 0.0910769231,2.07015385 C0.0862028392,1.83359269 0.125436074,1.59819328 0.206769231,1.376 L3.01292308,2.90215385 C2.93038515,3.12402749 2.89111337,3.35965816 2.89723077,3.59630769 C2.89607692,4.00739888 3.068614,4.3998537 3.37230769,4.67692308" id="Path"></path>
                        <path d="M3.01292308,2.90707692 L0.206769231,1.38092308 C0.239128108,1.29609608 0.277800574,1.21381424 0.322461538,1.13476923 L3.12615385,2.66092308 C3.08230246,2.74002465 3.04445247,2.82230724 3.01292308,2.90707692" id="Path"></path>
                        <path d="M3.12615385,2.65353846 L0.322461538,1.12738462 C0.358772291,1.05812567 0.399898966,0.991500459 0.445538462,0.928 L3.24923077,2.46153846 C3.20446493,2.52561727 3.16337317,2.59218592 3.12615385,2.66092308" id="Path"></path>
                        <path d="M3.24923077,2.46153846 L0.445538462,0.935384615 C0.465230769,0.905846154 0.484923077,0.876307692 0.507076923,0.849230769 C0.529230769,0.822153846 0.558769231,0.785230769 0.585846154,0.755692308 L3.392,2.28184615 C3.36492308,2.31138462 3.33784615,2.34338462 3.31323077,2.37538462 C3.28861538,2.40738462 3.27138462,2.432 3.24923077,2.46153846" id="Path"></path>
                        <path d="M3.392,2.27446154 L0.585846154,0.748307692 C0.633586787,0.69362458 0.684549226,0.641840165 0.738461538,0.593230769 L3.54461538,2.11938462 C3.49009572,2.16735567 3.43909265,2.21918136 3.392,2.27446154" id="Path"></path>
                        <path d="M3.54461538,2.11938462 L0.738461538,0.593230769 C0.796594951,0.540642056 0.858279191,0.49211712 0.923076923,0.448 L3.72676923,1.97415385 C3.66323847,2.01892702 3.60241411,2.06742211 3.54461538,2.11938462" id="Path"></path>
                        <path d="M3.72676923,1.96923077 L0.923076923,0.443076923 C1.00084174,0.388453002 1.08320227,0.340683891 1.16923077,0.300307692 L3.97292308,1.82646154 C3.8874702,1.86792886 3.80519532,1.91564829 3.72676923,1.96923077" id="Path"></path>
                        <path d="M3.97292308,1.83138462 L1.16923077,0.305230769 C1.31005521,0.238355258 1.46032273,0.193524066 1.61476923,0.172307692 C1.78955372,0.145433898 1.96799058,0.154648947 2.13907692,0.199384615 L4.94523077,1.72553846 C4.77330557,1.68080927 4.59406684,1.67159606 4.41846154,1.69846154 C4.26416836,1.72038214 4.11400511,1.76518222 3.97292308,1.83138462" id="Path"></path>
                        <path d="M4.94523077,1.72307692 L2.13907692,0.196923077 C2.22381474,0.218386327 2.3062565,0.248065362 2.38523077,0.285538462 L5.19138462,1.81169231 C5.11271471,1.77349234 5.03019736,1.7437861 4.94523077,1.72307692" id="Path"></path>
                        <polyline id="Path" points="5.18646154 1.81415385 2.38030769 0.288 2.42707692 0.312615385 5.23076923 1.83876923 5.18646154 1.81415385"></polyline>
                    </g>
                    <g id="Group" transform="translate(17.723077, 0.000000)">
                        <path d="M5.49907692,13.2701538 L2.69292308,11.744 C1.13230769,10.8923077 0.0935384615,9.15446154 0.0984441151,7.01046154 C0.100801539,6.20207681 0.245794561,5.40044872 0.526769231,4.64246154 L3.33292308,6.16861538 C3.05234502,6.92678968 2.90655803,7.72820156 2.90215385,8.53661538 C2.90215385,10.6806154 3.936,12.4184615 5.49907692,13.2701538" id="Path"></path>
                        <path d="M3.33292308,6.16861538 L0.526769231,4.64246154 C0.646460976,4.31941456 0.788761931,4.00520089 0.952615385,3.70215385 L3.75630769,5.22830769 C3.5927946,5.53117594 3.45130057,5.8454243 3.33292308,6.16861538" id="Path"></path>
                        <path d="M3.75630769,5.22830769 L0.952615385,3.69230769 C1.08833945,3.43659846 1.24045148,3.1899303 1.408,2.95384615 L4.21169231,4.48 C4.04588554,4.71723301 3.89384033,4.96379281 3.75630769,5.21846154" id="Path"></path>
                        <path d="M4.21169231,4.48738462 L1.408,2.95384615 C1.56030794,2.73169415 1.72465612,2.51804152 1.90030769,2.31384615 L4.704,3.84 C4.52676923,4.04430769 4.35692308,4.25846154 4.21169231,4.48" id="Path"></path>
                        <path d="M4.71630769,3.84738462 L1.91261538,2.32123077 C2.09106981,2.11778306 2.28178386,1.92542493 2.48369231,1.74523077 L5.28984615,3.27138462 C5.0877289,3.45217425 4.89623008,3.64449496 4.71630769,3.84738462" id="Path"></path>
                        <path d="M5.28984615,3.27138462 L2.48369231,1.74523077 C2.69699076,1.55131817 2.92314678,1.37203812 3.16061538,1.20861538 L5.96430769,2.73476923 C5.7281135,2.89885962 5.50281937,3.07810823 5.28984615,3.27138462" id="Path"></path>
                        <path d="M5.96430769,2.73476923 L3.16061538,1.20861538 C3.44748521,1.00971315 3.75049033,0.835155854 4.06646154,0.686769231 L6.87261538,2.21292308 C6.55613074,2.36182794 6.25234965,2.536358 5.96430769,2.73476923" id="Path"></path>
                        <path d="M6.87261538,2.21538462 L4.06646154,0.689230769 C4.58160164,0.443620308 5.13103922,0.277627082 5.696,0.196923077 C6.33784233,0.102200079 6.99209568,0.135665723 7.62092308,0.295384615 L10.4270769,1.82153846 C9.79740337,1.66188027 9.14235785,1.6284169 8.49969231,1.72307692 C7.93552394,1.8038 7.38690067,1.96979797 6.87261538,2.21538462" id="Path"></path>
                        <path d="M10.4270769,1.82153846 L7.63076923,0.295384615 C7.93538506,0.374101724 8.2314086,0.482946034 8.51446154,0.620307692 L11.3181538,2.14646154 C11.0365704,2.00765995 10.741213,1.89875721 10.4369231,1.82153846" id="Path"></path>
                        <polyline id="Path" points="11.3083077 2.14646154 8.50461538 0.620307692 8.67446154 0.708923077 11.4806154 2.23507692 11.3083077 2.14646154"></polyline>
                    </g>
                </g>
                <g id="outline" transform="translate(2.707692, 1.476923)" fill="#724292" stroke="#724292" stroke-width="0.5">
                    <path d="M34.3852308,28.0910769 C34.5842411,30.4169986 34.5305946,32.7576384 34.2252308,35.072 C33.931557,37.366072 33.4649987,39.6346808 32.8295385,41.8584615 C32.7272535,42.2226304 32.5030706,42.5406573 32.1944615,42.7593846 C32.018722,42.8867583 31.8155218,42.9710738 31.6012308,43.0055385 C31.4718349,43.0236151 31.3403017,43.0194526 31.2123077,42.9932308 C30.6067692,42.8726154 30.2276923,42.2818462 30.3310769,41.5901538 C30.6234637,39.523501 30.7535025,37.4371185 30.72,35.3501538 C30.6923511,33.3889409 30.4446465,31.4370286 29.9815385,29.5310769 C29.716869,28.4533183 29.3543382,27.401979 28.8984615,26.3901538 C28.6843077,28.8344615 28.5686154,31.1138462 28.5538462,33.3415385 C28.5538462,34.4123077 28.5538462,35.68 28.6006154,36.9673846 C28.6375385,38.0578462 28.7064615,39.2098462 28.8123077,40.5956923 C28.9723077,42.8750769 29.2135385,45.1323077 29.4695385,47.52 L29.5163077,47.9803077 C29.824,50.9341538 30.0086154,53.3809231 30.1415385,55.6972308 C30.5835889,63.776588 29.5833598,71.8701083 27.1876923,79.5987692 C26.9643466,80.3805103 26.3180434,80.9686653 25.5187692,81.1175385 C25.3269863,81.1445998 25.131907,81.1370968 24.9427692,81.0953846 C24.2043077,80.9255385 23.7243077,80.2215385 23.7587692,79.3723077 L23.8375385,78.4713846 C24.5095385,70.9612308 25.6295385,58.4492308 21.4867692,45.952 C21.3218462,47.2 21.1372308,48.4578462 20.9378462,49.696 C19.9898006,55.3518367 18.6558124,60.9361647 16.9452308,66.4098462 C16.5046154,67.7907692 16.0418462,69.1667692 15.5692308,70.5009231 C15.3058462,71.2221538 15.0769231,71.8695385 14.816,72.5267692 C14.5870769,73.1347692 14.3236923,73.8412308 14.0307692,74.5403077 C13.5827692,75.6381538 12.9846154,77.0830769 12.3076923,78.5206154 C12.032,79.136 11.7292308,79.7784615 11.3796923,80.4898462 C11.2024615,80.8541538 11.04,81.1716923 10.8873846,81.4744615 L10.3630769,82.4590769 C10.0641498,83.0554151 9.49936022,83.4739809 8.84184615,83.5864615 C8.52496314,83.6338459 8.20120168,83.5804597 7.91630769,83.4338462 C7.17784615,83.0547692 6.88246154,82.1292308 7.17784615,81.2184615 L7.87692308,79.2123077 L8.49969231,77.2430769 C8.90830769,75.9163077 9.30953846,74.6190769 9.68615385,73.3046154 C10.1513846,71.7144615 10.4935385,70.4935385 10.7963077,69.3464615 C11.1630769,68.0172308 11.5101538,66.6830769 11.8276923,65.3833846 C12.0024615,64.6990769 12.1673846,64.0073846 12.32,63.3969231 C12.4898462,62.7150769 12.6424615,62.0406154 12.7803077,61.4129231 C13.1298462,59.8670769 13.4006154,58.6043077 13.6344615,57.4375385 C14.1267692,54.944 14.5698462,52.3421538 14.9587692,49.4843077 C15.1384615,48.1673846 15.2935385,46.8332308 15.4264615,45.5187692 C15.5446154,44.3224615 15.648,43.0301538 15.744,41.5655385 C15.8276923,40.2166154 15.8843077,38.8947692 15.9163077,37.6270769 C15.9483077,36.3593846 15.9409231,35.0523077 15.9163077,33.728 C15.8588459,30.7094032 15.6295517,27.696527 15.2295385,24.704 L10.7003077,30.2818462 L10.4024615,30.6338462 C10.028943,31.0860859 9.50428882,31.3877621 8.92553846,31.4830769 C8.39477933,31.5683731 7.853576,31.4132282 7.44861538,31.0596923 L0.664615385,25.1076923 C0.360921695,24.8306229 0.188384612,24.4381681 0.189232368,24.0270769 C0.18159114,23.5810403 0.328615122,23.1460581 0.605538462,22.7963077 C0.876520684,22.4364041 1.27768182,22.1969445 1.72307692,22.1292308 C2.00752606,22.0847775 2.29867055,22.1367676 2.55015385,22.2769231 L8.36923077,25.5286154 L14.8332308,15.488 C15.3472952,14.649915 16.1845074,14.0611945 17.1470769,13.8609231 C22.7076923,13.0732308 25.8264615,14.0332308 28.1649231,15.072 C28.3262142,15.140081 28.4810884,15.2224609 28.6276923,15.3181538 C28.6747591,15.349113 28.7199653,15.3828121 28.7630769,15.4190769 L28.9107692,15.5372308 C28.9846154,15.5987692 29.0461538,15.6578462 29.1101538,15.7144615 C29.2135385,15.8055385 29.3021538,15.8966154 29.3956923,15.9876923 C29.6935385,16.288 29.888,16.512 30.0849231,16.7261538 C30.4710169,17.1799775 30.8270568,17.6585346 31.1507692,18.1587692 C31.7958074,19.1392155 32.3432424,20.1804962 32.7852308,21.2676923 C33.6591303,23.4486042 34.1985498,25.7490207 34.3852308,28.0910769 L34.3852308,28.0910769 Z M34.0086154,35.072 C34.3119817,32.7756077 34.3648048,30.4530407 34.1661538,28.1452308 C33.9781314,25.8346553 33.4420278,23.5657584 32.576,21.4153846 C32.1414013,20.3406207 31.6013244,19.3115886 30.9636923,18.3433846 C30.6418561,17.8504412 30.2900127,17.3777543 29.9101538,16.928 C29.7255385,16.7089231 29.5236923,16.4873846 29.2972308,16.256 C29.1421538,16.1033846 29.0510769,16.0098462 28.9501538,15.9236923 C28.8910769,15.8670769 28.8295385,15.8129231 28.7581538,15.7538462 L28.6178462,15.6356923 L28.4898462,15.5446154 C28.3537826,15.4527851 28.2086029,15.3752459 28.0566154,15.3132308 C25.7230769,14.2744615 22.6707692,13.344 17.4129231,14.0652308 C16.4257801,14.2006373 15.5485698,14.7644296 15.0153846,15.6061538 L8.416,25.8461538 L2.41723077,22.4984615 C2.20277162,22.3802878 1.95531823,22.3361615 1.71323077,22.3729231 C1.33399419,22.4333079 0.993188087,22.6390277 0.763076923,22.9464615 C0.526756483,23.2470935 0.401541175,23.6201307 0.408331257,24.0024615 C0.405938811,24.3540422 0.553752644,24.6899828 0.814769231,24.9255385 L7.59630769,30.8824615 C7.95748535,31.1977189 8.43946378,31.3373575 8.91323077,31.264 C9.43434248,31.1796976 9.90688821,30.9084214 10.2424615,30.5009231 L10.5378462,30.1538462 L15.3772308,24.1969231 L15.4092308,24.4258462 C15.8300153,27.5032949 16.0700168,30.6027662 16.128,33.7083077 C16.1501538,35.0375385 16.1501538,36.352 16.128,37.6172308 C16.1058462,38.8824615 16.0393846,40.2067692 15.9556923,41.5556923 C15.8596923,43.0326154 15.7538462,44.32 15.6381538,45.5187692 C15.5027692,46.8356923 15.3476923,48.1747692 15.1704615,49.4941538 C14.7766154,52.3593846 14.3433846,54.9661538 13.8387692,57.4670769 C13.6073846,58.6338462 13.3464615,59.9015385 12.9870769,61.4449231 C12.8467692,62.0750769 12.6941538,62.752 12.5243077,63.4363077 C12.3790769,64.0467692 12.2116923,64.7384615 12.032,65.4227692 C11.7144615,66.7249231 11.3649231,68.064 10.9981538,69.3932308 C10.6953846,70.5403077 10.3532308,71.7636923 9.88553846,73.3563077 C9.50892308,74.6756923 9.10769231,75.9778462 8.69907692,77.2947692 L7.75384615,80.2486154 L7.40676923,81.2898462 C7.14584615,82.08 7.40676923,82.8947692 8.05169231,83.2270769 C8.30157717,83.3562157 8.58598699,83.4027555 8.864,83.36 C9.43954157,83.2615747 9.93443975,82.8963362 10.1981538,82.3753846 L10.72,81.3907692 C10.8726154,81.0978462 11.0326154,80.7803077 11.2123077,80.4209231 C11.5593846,79.7144615 11.8646154,79.072 12.1403077,78.4516923 C12.8024615,77.0190769 13.4006154,75.5790769 13.8461538,74.4836923 C14.1316923,73.7870769 14.4024615,73.0806154 14.6313846,72.4750769 C14.8775385,71.8227692 15.1236923,71.1729231 15.3698462,70.4541538 C15.84,69.1249231 16.3003077,67.7464615 16.7409231,66.3753846 C18.4479405,60.91476 19.778649,55.3435486 20.7236923,49.7009231 C20.9501538,48.3003077 21.1569231,46.88 21.3366154,45.472 L21.4006154,44.9796923 L21.5483077,45.4178462 C25.8806154,58.1070769 24.7483077,70.8578462 24.0590769,78.4763077 L23.9803077,79.3649231 C23.9150886,80.0507309 24.3522682,80.6841741 25.0166154,80.8664615 C25.1822094,80.9037648 25.3532333,80.9104389 25.5212308,80.8861538 C25.7643096,80.8507598 25.9959523,80.7597874 26.1981538,80.6203077 C26.5750563,80.36629 26.8524864,79.9897156 26.9833846,79.5544615 C29.3667557,71.8555142 30.3603115,63.7937095 29.9175385,55.7464615 C29.7969231,53.4326154 29.6,50.9833846 29.2923077,48.0443077 L29.2455385,47.584 C28.9993846,45.1913846 28.7532308,42.9316923 28.5883077,40.6498462 C28.4824615,39.2615385 28.416,38.1046154 28.3766154,37.0141538 C28.3298462,35.7218462 28.3273846,34.4492308 28.3298462,33.376 C28.3470769,31.0301538 28.4701538,28.6276923 28.7089231,26.0307692 L28.7532308,25.5581538 L28.9230769,25.9052308 C29.4658241,27.0391659 29.8898239,28.2262004 30.1883077,29.4473846 C30.6525577,31.3706578 30.9002511,33.3398201 30.9267692,35.3181538 C30.9629253,37.4174454 30.8328782,39.516306 30.5378462,41.5950769 C30.4228211,42.1211878 30.7518186,42.6421005 31.2763077,42.7643077 C31.3830014,42.7827774 31.4920755,42.7827774 31.5987692,42.7643077 C31.7763743,42.7363641 31.9449735,42.6672384 32.0910769,42.5624615 C32.3462153,42.3840597 32.5322129,42.1233154 32.6178462,41.824 C33.2498707,39.6148154 33.7139626,37.3610074 34.0061538,35.0818462" id="Shape"></path>
                    <path d="M23.4929231,12.3076923 C20.4135385,12.7409231 17.9126154,10.3876923 17.9175312,7.06215385 C17.9224615,3.73661538 20.4307692,0.676923077 23.5150769,0.246153846 C26.5993846,-0.184615385 29.0978462,2.16615385 29.0904779,5.48923077 C29.0830769,8.81230769 26.5846154,11.872 23.4929231,12.3076923 Z M23.5150769,0.492307692 C20.5612308,0.908307692 18.144,3.84492308 18.1365984,7.03753846 C18.1292308,10.2301538 20.5341538,12.4947692 23.4929231,12.0787692 C26.4516923,11.6627692 28.8664615,8.72369231 28.8713922,5.53107692 C28.8763077,2.33846154 26.4763077,0.0763076923 23.5150769,0.492307692" id="Shape"></path>
                </g>
                <g id="fill" transform="translate(2.953846, 1.723077)" fill="#D18AFF">
                    <path d="M33.92,27.8990769 C34.1186509,30.2068869 34.0658278,32.5294538 33.7624615,34.8258462 C33.4702703,37.1050074 33.0061784,39.3588154 32.3741538,41.568 C32.2885205,41.8673154 32.1025229,42.1280597 31.8473846,42.3064615 C31.7012812,42.4112384 31.532682,42.4803641 31.3550769,42.5083077 C31.2483832,42.5267774 31.1393091,42.5267774 31.0326154,42.5083077 C30.5081263,42.3861005 30.1791288,41.8651878 30.2941538,41.3390769 C30.5891859,39.260306 30.719233,37.1614454 30.6830769,35.0621538 C30.6565588,33.0838201 30.4088654,31.1146578 29.9446154,29.1913846 C29.6461316,27.9702004 29.2221318,26.7831659 28.6793846,25.6492308 L28.5095385,25.3021538 L28.4652308,25.7747692 C28.2190769,28.3716923 28.1033846,30.7741538 28.0861538,33.12 C28.0861538,34.1932308 28.0861538,35.4658462 28.1329231,36.7581538 C28.1723077,37.8486154 28.2387692,39.0055385 28.3446154,40.3938462 C28.5046154,42.6756923 28.7483077,44.9353846 29.0018462,47.328 L29.0486154,47.7883077 C29.3563077,50.7273846 29.5532308,53.1766154 29.6738462,55.4904615 C30.1166192,63.5377095 29.1230634,71.5995142 26.7396923,79.2984615 C26.6087941,79.7337156 26.331364,80.11029 25.9544615,80.3643077 C25.75226,80.5037874 25.5206173,80.5947598 25.2775385,80.6301538 C25.109541,80.6544389 24.9385171,80.6477648 24.7729231,80.6104615 C24.1085759,80.4281741 23.6713963,79.7947309 23.7366154,79.1089231 L23.8153846,78.2203077 C24.4947692,70.6018462 25.6369231,57.8510769 21.3046154,45.1618462 L21.1569231,44.7236923 L21.0929231,45.216 C20.9132308,46.624 20.7064615,48.0467692 20.48,49.4449231 C19.5349567,55.0875486 18.2042482,60.65876 16.4972308,66.1193846 C16.0566154,67.4978462 15.5963077,68.8689231 15.1261538,70.1981538 C14.8652308,70.9169231 14.6338462,71.5667692 14.3876923,72.2190769 C14.1587692,72.8246154 13.8953846,73.5310769 13.6024615,74.2276923 C13.1569231,75.3230769 12.5587692,76.7630769 11.8966154,78.1956923 C11.6209231,78.8086154 11.3156923,79.4510769 10.9686154,80.1649231 C10.7913846,80.5243077 10.6313846,80.8418462 10.4763077,81.1347692 L9.95446154,82.1193846 C9.69074744,82.6403362 9.19584926,83.0055747 8.62030769,83.104 C8.34229469,83.1467555 8.05788486,83.1002157 7.808,82.9710769 C7.17046154,82.6387692 6.90215385,81.824 7.16307692,81.0338462 L7.51015385,79.9926154 L8.45538462,77.0387692 C8.864,75.712 9.26523077,74.4098462 9.64184615,73.1003077 C10.1095385,71.5076923 10.4516923,70.2843077 10.7544615,69.1372308 C11.1212308,67.808 11.4707692,66.4689231 11.7883077,65.1667692 C11.9630769,64.4824615 12.1304615,63.7907692 12.2806154,63.1803077 C12.4504615,62.496 12.6030769,61.8190769 12.7433846,61.1889231 C13.0929231,59.6455385 13.3636923,58.3778462 13.5950769,57.2110769 C14.0873846,54.7101538 14.5329231,52.1033846 14.9267692,49.2381538 C15.104,47.9187692 15.2590769,46.5796923 15.3944615,45.2627692 C15.5101538,44.064 15.616,42.7692308 15.712,41.2996923 C15.7956923,39.9507692 15.8523077,38.624 15.8843077,37.3612308 C15.9163077,36.0984615 15.9089231,34.7815385 15.8843077,33.4523077 C15.8263244,30.3467662 15.586323,27.2472949 15.1655385,24.1698462 L15.1335385,23.9409231 L10.2941538,29.8978462 L9.99876923,30.2449231 C9.66319591,30.6524214 9.19065018,30.9236976 8.66953846,31.008 C8.19577147,31.0813575 7.71379304,30.9417189 7.35261538,30.6264615 L0.571076923,24.6695385 C0.310060336,24.4339828 0.162246503,24.0980422 0.16463895,23.7464615 C0.157848867,23.3641307 0.283064175,22.9910935 0.519384615,22.6904615 C0.749495779,22.3830277 1.09030188,22.1773079 1.46953846,22.1169231 C1.71162593,22.0801615 1.95907931,22.1242878 2.17353846,22.2424615 L8.16984615,25.6 L14.7692308,15.36 C15.2688036,14.544853 16.0979293,13.9870122 17.0412308,13.8313846 C22.4369231,13.0929231 25.4892308,14.016 27.7784615,15.0301538 C27.9448337,15.0974288 28.1046831,15.1798254 28.256,15.2763077 L28.384,15.3673846 L28.5243077,15.4855385 C28.5956923,15.5446154 28.6572308,15.5987692 28.7163077,15.6553846 C28.8196923,15.7464615 28.9083077,15.8350769 28.9993846,15.9236923 C29.2898462,16.2190769 29.4916923,16.4406154 29.6763077,16.6621538 C30.0561666,17.1119082 30.40801,17.584595 30.7298462,18.0775385 C31.364376,19.0524995 31.9003481,20.0881625 32.3298462,21.1692308 C33.1958739,23.3196045 33.7319776,25.5885015 33.92,27.8990769 Z" id="Path"></path>
                    <path d="M23.2467692,11.8153846 C20.2929231,12.2313846 17.8855385,9.96923077 17.890454,6.77415385 C17.8953846,3.57907692 20.3101538,0.644923077 23.2689231,0.228923077 C26.2276923,-0.187076923 28.6326154,2.07261538 28.6252477,5.26769231 C28.6178462,8.46276923 26.208,11.4067692 23.2467692,11.8153846 Z" id="Path"></path>
                </g>
            </g>
            <g id="me" transform="translate(48.230769, 26.292308)" fill-rule="nonzero">
                <g id="depth-2" fill="#0051BA">
                    <path d="M12.5070769,82.5304615 L9.70338462,81.0043077 C9.28828261,80.7696828 9.00014424,80.3614115 8.91815385,79.8916923 C8.84923077,79.5470769 8.79261538,79.2443077 8.73846154,78.9193846 L11.5446154,80.4455385 C11.5987692,80.7704615 11.6553846,81.0732308 11.7243077,81.4178462 C11.8054111,81.8872414 12.0926757,82.2955545 12.5070769,82.5304615" id="Path"></path>
                    <polygon id="Path" points="11.5446154 80.4455385 8.73846154 78.9193846 8.58092308 77.9667692 11.3846154 79.4929231"></polygon>
                    <path d="M29.1298462,80.1353846 L26.3384615,78.6092308 C26.053267,78.4516789 25.8262993,78.2065883 25.6910769,77.9101538 C23.5545251,73.2892721 21.7609625,68.5174085 20.3249231,63.6332308 C19.5864615,61.1273846 18.9218462,58.592 18.3556923,56.1009231 L21.1618462,57.6270769 C21.7230769,60.1181538 22.3926154,62.6535385 23.1310769,65.1593846 C24.5671164,70.0435624 26.3606789,74.815426 28.4972308,79.4363077 C28.6322504,79.732082 28.8582014,79.977006 29.1421538,80.1353846" id="Path"></path>
                    <polygon id="Path" points="21.1544615 57.6196923 18.3483077 56.0935385 17.5187692 52.3126154 19.2541538 47.712 20.3249231 53.8387692"></polygon>
                    <path d="M29.4473846,44.3076923 L26.6436923,42.7815385 C26.2605081,42.5662464 26.0191602,42.1649353 26.0086154,41.7255385 C25.8758534,39.4871123 25.6087053,37.2586861 25.2086154,35.0523077 C25.1495385,34.7027692 25.0781538,34.3532308 25.0067692,34.0184615 C24.9673846,33.824 24.9255385,33.6295385 24.8861538,33.4350769 L27.6923077,34.9612308 L27.8104615,35.5446154 C27.8843077,35.8793846 27.9556923,36.2289231 28.0147692,36.5784615 C28.4148592,38.7848399 28.6820073,41.0132661 28.8147692,43.2516923 C28.825295,43.6904397 29.0655042,44.0914114 29.4473846,44.3076923" id="Path"></path>
                    <path d="M27.6923077,34.9686154 L24.8861538,33.4424615 C24.8443077,33.2553846 24.8,33.0658462 24.7556923,32.8763077 C24.6793846,32.5390769 24.6006154,32.192 24.5095385,31.8572308 L27.3132308,33.3833846 C27.4043077,33.7181538 27.4830769,34.0652308 27.5593846,34.4024615 C27.6036923,34.592 27.6455385,34.7815385 27.6898462,34.9686154" id="Path"></path>
                    <path d="M27.3230769,33.3833846 L24.5193846,31.8572308 C24.2338462,30.6978462 23.8892308,29.5926154 23.6184615,28.7581538 C23.2910769,27.7735385 22.9292308,26.7889231 22.5378462,25.8486154 L25.3415385,27.3747692 C25.7353846,28.32 26.0972308,29.2972308 26.4221538,30.2843077 C26.6929231,31.1187692 27.0375385,32.224 27.3230769,33.3833846" id="Path"></path>
                    <path d="M11.3846154,79.4929231 L8.58092308,77.9667692 C8.48984615,77.3661538 8.40369231,76.736 8.31753846,76.0541538 C8.14769231,74.752 8.03692308,73.4326154 7.93846154,72.1944615 C7.74153846,69.5876923 7.66523077,66.9464615 7.70953846,64.3421538 C7.75138462,61.6787692 7.92615385,58.9833846 8.22892308,56.3372308 C8.53655381,53.6036513 9.00838069,50.8910578 9.64184615,48.2141538 C9.93723077,46.9513846 10.3015385,45.6196923 10.7569231,44.1476923 L13.5606154,45.6738462 C13.1076923,47.1507692 12.7433846,48.4775385 12.448,49.7403077 C11.8146969,52.4173639 11.3420584,55.1298982 11.0326154,57.8633846 C10.7298462,60.5095385 10.5575385,63.2049231 10.5156923,65.8658462 C10.4689231,68.4726154 10.5476923,71.1138462 10.7446154,73.7206154 C10.8430769,74.9513846 10.9538462,76.2781538 11.1236923,77.5803077 C11.2098462,78.2646154 11.2935385,78.8923077 11.3846154,79.4929231" id="Path"></path>
                    <polygon id="Path" points="13.5606154 45.6812308 10.7569231 44.1550769 11.3870769 42.2301538 14.1932308 43.7563077"></polygon>
                    <path d="M14.1932308,43.7563077 L11.3870769,42.2301538 C11.5294727,41.7585072 11.6421047,41.2783826 11.7243077,40.7926154 C11.8716731,39.8424983 11.9071973,38.8783858 11.8301538,37.92 C11.7431798,36.8265182 11.5919441,35.7391008 11.3772308,34.6633846 C11.072,32.9846154 10.6904615,31.2984615 10.2867692,29.5138462 C10.144,28.8886154 10.0028718,28.2617436 9.86338462,27.6332308 C9.77476923,27.232 9.68369231,26.8283077 9.59507692,26.4270769 L12.4012308,27.9532308 C12.4898462,28.3544615 12.5809231,28.7581538 12.6695385,29.1593846 C12.8106667,29.7862564 12.9517949,30.4131282 13.0929231,31.04 C13.4941538,32.8246154 13.8781538,34.5107692 14.1833846,36.1895385 C14.3980979,37.2652546 14.5493336,38.352672 14.6363077,39.4461538 C14.7121638,40.404565 14.6766446,41.3685394 14.5304615,42.3187692 C14.4470857,42.8042991 14.3344706,43.284352 14.1932308,43.7563077" id="Path"></path>
                    <g id="Group" transform="translate(20.430769, 12.061538)">
                        <path d="M2.95384615,1.69846154 L0.147692308,0.172307692 C0.380858333,0.147085054 0.616064744,0.147085054 0.849230769,0.172307692 C0.977032083,0.186484622 1.10369538,0.209514313 1.22830769,0.241230769 L4.03446154,1.76738462 C3.90906407,1.73545287 3.78156712,1.71242117 3.65292308,1.69846154 C3.42013586,1.67733043 3.18574528,1.68145703 2.95384615,1.71076923" id="Path"></path>
                        <path d="M4.04430769,1.75507692 L1.23815385,0.228923077 C1.40796849,0.27399617 1.5728819,0.3358387 1.73046154,0.413538462 L4.53661538,1.93969231 C4.37949225,1.86094239 4.2144689,1.79905863 4.04430769,1.75507692" id="Path"></path>
                        <polyline id="Path" points="4.53907692 1.93969231 1.73292308 0.413538462 1.82646154 0.462769231 4.63261538 1.98892308 4.53907692 1.93969231"></polyline>
                    </g>
                    <polygon id="Path" points="11.6578462 41.9396923 8.85415385 40.4135385 0.896 33.6516923 3.70215385 35.1778462"></polygon>
                    <g id="Group" transform="translate(10.092308, 12.061538)">
                        <path d="M2.80615385,5.56307692 L0,4.03692308 C0.999637305,3.38362977 2.04244158,2.79890277 3.12123077,2.28676923 L5.92738462,3.81292308 C4.84831899,4.32452173 3.80547897,4.90926877 2.80615385,5.56307692" id="Path"></path>
                        <path d="M5.92738462,3.81292308 L3.12123077,2.28676923 C5.45708178,1.20020023 7.94889812,0.486710149 10.5058462,0.172307692 L13.312,1.69846154 C10.7549219,2.0122241 8.26300731,2.7257423 5.92738462,3.81292308" id="Path"></path>
                    </g>
                    <g id="Group" transform="translate(8.861538, 16.000000)">
                        <path d="M2.93415385,2.77415385 L0.130461538,1.248 C0.167384615,1.18892308 0.204307692,1.12984615 0.243692308,1.07323077 L3.04984615,2.59938462 C3.01046154,2.656 2.97107692,2.71507692 2.93415385,2.77415385" id="Path"></path>
                        <path d="M3.04984615,2.59938462 L0.243692308,1.07323077 C0.328687487,0.953665439 0.419889446,0.838635942 0.516923077,0.728615385 L3.32307692,2.25476923 C3.22604329,2.36478979 3.13484133,2.47981929 3.04984615,2.59938462" id="Path"></path>
                        <path d="M3.32307692,2.25476923 L0.516923077,0.738461538 C0.614848926,0.626611684 0.719232258,0.520584521 0.829538462,0.420923077 L3.63569231,1.94707692 C3.52477906,2.04610287 3.42035787,2.15216849 3.32307692,2.26461538" id="Path"></path>
                        <path d="M3.63569231,1.93723077 L0.829538462,0.411076923 C0.947242982,0.305824144 1.07138007,0.207994251 1.20123077,0.118153846 L4.00738462,1.64430769 C3.87707837,1.73352998 3.75290232,1.83139058 3.63569231,1.93723077" id="Path"></path>
                        <polyline id="Path" points="4.00738462 1.64430769 1.20123077 0.118153846 1.23076923 0.0984615385 4.03692308 1.62461538 4.00738462 1.64430769"></polyline>
                    </g>
                    <polygon id="Path" points="3.61353846 31.8153846 0.807384615 30.2892308 8.98953846 17.248 11.7956923 18.7741538"></polygon>
                    <polygon id="Path" points="3.40430769 32.16 0.600615385 30.6338462 0.807384615 30.2892308 3.61353846 31.8153846"></polygon>
                    <g id="Group" transform="translate(0.000000, 30.523077)">
                        <path d="M3.69230769,4.65476923 L0.886153846,3.12861538 C0.206769231,2.55261538 0.0123076923,1.52861538 0.356923077,0.595692308 L3.16061538,2.12184615 C2.81846154,3.05476923 3.01292308,4.07876923 3.69230769,4.65476923" id="Path"></path>
                        <path d="M3.17046154,2.12184615 L0.366769231,0.595692308 C0.412400747,0.472614786 0.465842755,0.352575814 0.526769231,0.236307692 L3.33292308,1.76246154 C3.27120562,1.87869137 3.21694226,1.99872849 3.17046154,2.12184615" id="Path"></path>
                        <path d="M3.33292308,1.76246154 L0.526769231,0.236307692 C0.551384615,0.194461538 0.573538462,0.152615385 0.600615385,0.110769231 L3.40430769,1.63692308 C3.37969231,1.67876923 3.35507692,1.72061538 3.33292308,1.76246154" id="Path"></path>
                    </g>
                    <g id="Group" transform="translate(8.615385, 0.000000)">
                        <path d="M5.48676923,13.3636923 L2.68307692,11.84 C1.12,10.9883077 0.0836923077,9.25046154 0.0861494705,7.10892308 C0.0903216765,6.29968641 0.236111567,5.49742547 0.516923077,4.73846154 L3.32307692,6.26461538 C3.04226541,7.02357932 2.89647552,7.82584026 2.89230769,8.63507692 C2.89230769,10.7766154 3.92615385,12.5144615 5.48676923,13.3636923" id="Path"></path>
                        <path d="M3.32307692,6.26461538 L0.516923077,4.73846154 C0.635293952,4.41447233 0.776786307,4.09940505 0.940307692,3.79569231 L3.74646154,5.32184615 C3.58294015,5.62555889 3.4414478,5.94062617 3.32307692,6.26461538" id="Path"></path>
                        <path d="M3.74646154,5.32184615 L0.940307692,3.79569231 C1.07776959,3.54098272 1.22981727,3.29441892 1.39569231,3.05723077 L4.20184615,4.58338462 C4.03597111,4.82057276 3.88392343,5.06713657 3.74646154,5.32184615" id="Path"></path>
                        <path d="M4.20184615,4.58338462 L1.39569231,3.05723077 C1.55231995,2.83501845 1.72076761,2.62137751 1.90030769,2.41723077 L4.70646154,3.94338462 C4.52617659,4.1469098 4.35769561,4.36059299 4.20184615,4.58338462" id="Path"></path>
                        <path d="M4.70646154,3.93846154 L1.90030769,2.41230769 C2.0799993,2.20923963 2.27064189,2.01613184 2.47138462,1.83384615 L5.27753846,3.36 C5.07679574,3.54228568 4.88615315,3.73539348 4.70646154,3.93846154" id="Path"></path>
                        <path d="M5.27753846,3.36492308 L2.47138462,1.83876923 C2.68634158,1.64758076 2.91237409,1.46922056 3.14830769,1.30461538 L5.95446154,2.83076923 C5.71762193,2.99415063 5.49151588,3.17256886 5.27753846,3.36492308" id="Path"></path>
                        <path d="M5.95446154,2.83076923 L3.14830769,1.30461538 C3.43630573,1.10542159 3.74008376,0.930070045 4.05661538,0.780307692 L6.86276923,2.30646154 C6.5459519,2.45567816 6.24212989,2.63105509 5.95446154,2.83076923" id="Path"></path>
                        <path d="M6.86276923,2.30646154 L4.05661538,0.780307692 C4.57162748,0.536601732 5.11996168,0.370691233 5.68369231,0.288 C6.32657323,0.195306267 6.98139257,0.229594381 7.61107692,0.388923077 L10.4147692,1.91507692 C9.78593044,1.75569158 9.13190446,1.72140121 8.48984615,1.81415385 C7.92611553,1.89684508 7.37778133,2.06275558 6.86276923,2.30646154" id="Path"></path>
                        <path d="M10.4147692,1.91753846 L7.61107692,0.391384615 C7.91603473,0.469002838 8.21216763,0.57788736 8.49476923,0.716307692 L11.2984615,2.24246154 C11.0158599,2.10404121 10.719727,1.99515668 10.4147692,1.91753846" id="Path"></path>
                        <polyline id="Path" points="11.2984615 2.24246154 8.49476923 0.716307692 8.66461538 0.804923077 11.4707692 2.33107692 11.2984615 2.24246154"></polyline>
                    </g>
                </g>
                <g id="outline-2" transform="translate(2.953846, 1.723077)" fill="#0051BA" stroke="#0051BA" stroke-width="0.5">
                    <path d="M28.8393846,76.0147692 C29.0279153,77.0495567 28.4678051,78.0753995 27.4953846,78.4763077 C27.3724287,78.5237351 27.2443978,78.5567753 27.1138462,78.5747692 C26.4518828,78.6800185 25.8020446,78.3262963 25.5310769,77.7132308 C23.3945251,73.0923491 21.6009625,68.3204854 20.1649231,63.4363077 C19.4264615,60.9304615 18.7618462,58.3950769 18.1956923,55.904 L17.3661538,52.1230769 C17.0387692,50.6190769 16.7876923,49.3932308 16.576,48.2609231 C16.4529231,47.6307692 16.3298462,46.9784615 16.224,46.2916923 C15.9483077,47.168 15.6627692,48.0886154 15.4215385,48.9993846 C14.24,53.3612308 13.408,58.1809231 12.8738462,63.7341538 C12.6424615,66.1169231 12.4775385,68.6572308 12.3815385,71.2443077 C12.3323077,72.32 12.3150769,73.4129231 12.2953846,74.4689231 L12.2953846,75.0030769 C12.2953846,75.4707692 12.2953846,75.936 12.2953846,76.3987692 L12.2953846,77.8092308 L12.3076923,78.7692308 C12.3138043,79.2915202 12.1399655,79.7999988 11.8153846,80.2092308 C11.5069933,80.6099021 11.0602272,80.8811216 10.5624615,80.9698462 C10.1581642,81.0365081 9.74397787,80.9391319 9.41173613,80.6993079 C9.07949439,80.4594839 8.85665116,80.0970293 8.79261538,79.6923077 C8.72369231,79.3476923 8.66707692,79.0449231 8.61292308,78.72 L8.45292308,77.7673846 C8.36184615,77.1667692 8.27815385,76.5366154 8.192,75.8547692 C8.02215385,74.5526154 7.91138462,73.2332308 7.81292308,71.9950769 C7.616,69.3883077 7.53723077,66.7470769 7.584,64.1403077 C7.62584615,61.4793846 7.79815385,58.784 8.10092308,56.1378462 C8.41036608,53.4043598 8.88300464,50.6918255 9.51630769,48.0147692 C9.81169231,46.752 10.176,45.4203077 10.6289231,43.9483077 L11.2615385,42.0233846 C11.4027783,41.551429 11.5153934,41.0713761 11.5987692,40.5858462 C11.7449523,39.6356164 11.7804715,38.671642 11.7046154,37.7132308 C11.6101324,36.620958 11.4514997,35.5351865 11.2295385,34.4615385 C10.9243077,32.7827692 10.5403077,31.0966154 10.1390769,29.312 C9.99630769,28.6867692 9.85517949,28.0598974 9.71569231,27.4313846 C9.62707692,27.0301538 9.536,26.6264615 9.44738462,26.2252308 L5.59015385,31.1704615 L10.9144615,37.6861538 C11.1691081,38.0145759 11.2824858,38.4308847 11.2295385,38.8430769 C11.1802375,39.2861407 10.98039,39.6988692 10.6633846,40.0123077 C10.4114383,40.2737829 10.0815061,40.4465223 9.72307692,40.5046154 C9.35765562,40.5615559 8.98556428,40.4563997 8.704,40.2166154 L0.738461538,33.4547692 C-0.0615384615,32.7753846 -0.189538462,31.4855385 0.440615385,30.4369231 L0.649846154,30.0923077 L8.832,17.0461538 C9.11531267,16.5901939 9.49096329,16.1986117 9.93476923,15.8966154 C13.0859108,13.8117882 16.6796774,12.490253 20.4307692,12.0369231 C20.6626684,12.0076109 20.8970589,12.0034843 21.1298462,12.0246154 C21.8660533,12.1034644 22.5342922,12.4908104 22.9686154,13.0904615 L23.2738462,13.5606154 C23.3403077,13.6689231 23.3993846,13.7698462 23.4584615,13.8732308 C23.6775385,14.2572308 23.8227692,14.5206154 23.9507692,14.784 C24.2116923,15.2763077 24.4701538,15.8153846 24.7384615,16.4135385 C25.216,17.4769231 25.6590769,18.5969231 26.0553846,19.744 C26.8265099,22.0102008 27.4287719,24.3303903 27.8572308,26.6855385 C28.1033846,28.1033846 28.2732308,29.2061538 28.3864615,30.2547692 C28.4381538,30.6461538 28.4750769,31.0498462 28.5095385,31.4387692 C28.5292308,31.6430769 28.5464615,31.8498462 28.5661538,32.0541538 C28.5858462,32.2584615 28.5956923,32.4750769 28.6104615,32.6818462 C28.64,33.0707692 28.6695385,33.4695385 28.6843077,33.8707692 C28.801417,36.2971512 28.7784044,38.7282697 28.6153846,41.152 C28.5689305,41.9381551 27.9953824,42.5927701 27.2221538,42.7421538 C26.8748575,42.7848707 26.5257959,42.6777414 26.2622555,42.4475546 C25.9987151,42.2173678 25.8456118,41.8858862 25.8412308,41.536 C25.7084688,39.2975738 25.4413207,37.0691476 25.0412308,34.8627692 C24.9821538,34.5132308 24.9107692,34.1636923 24.8369231,33.8289231 L24.7187692,33.2455385 C24.6744615,33.0584615 24.6326154,32.8689231 24.5883077,32.6793846 C24.512,32.3421538 24.4332308,31.9950769 24.3421538,31.6603077 C24.0566154,30.5009231 23.712,29.3956923 23.4412308,28.5612308 C23.1163077,27.5766154 22.7544615,26.592 22.3606154,25.6516923 C22.1981538,27.6036923 22.0947692,29.408 22.0504615,31.1606154 C21.9692308,33.4769231 22.0036923,35.9409231 22.1563077,38.6978462 C22.3089231,41.4547692 22.6486154,44.1132308 22.9415385,46.1316923 C23.0966154,47.2147692 23.2886154,48.4036923 23.5396923,49.8732308 L24.1969231,53.664 C24.6769231,56.3446154 25.1421538,58.7815385 25.6147692,61.1126154 C26.1070769,63.5101538 26.6190769,65.9396923 27.1926154,68.5415385 C27.3780513,69.3932308 27.5651282,70.2441026 27.7538462,71.0941538 C28.1304615,72.7015385 28.4972308,74.3630769 28.8393846,76.0147692 Z M27.4486154,78.2523077 C28.2980666,77.9037508 28.7891694,77.0097181 28.6276923,76.1058462 C28.2855385,74.4467692 27.9163077,72.7852308 27.5618462,71.1827692 C27.3731282,70.3310769 27.1852308,69.4802051 26.9981538,68.6301538 C26.4270769,66.0258462 25.9076923,63.5963077 25.4203077,61.1987692 C24.9476923,58.8652308 24.4824615,56.4258462 24,53.7403077 L23.3427692,49.9495385 C23.0966154,48.4726154 22.8996923,47.2886154 22.7446154,46.2030769 C22.4590769,44.1649231 22.112,41.4793846 21.9569231,38.7495385 C21.8018462,36.0196923 21.7698462,33.5113846 21.8510769,31.1901538 C21.9003077,29.2947692 22.016,27.3329231 22.2030769,25.1963077 L22.2424615,24.7335385 L22.4123077,25.1298462 C22.8701538,26.2055385 23.2935385,27.328 23.6676923,28.4627692 C23.9409231,29.2996923 24.288,30.4098462 24.5735385,31.5741538 C24.6646154,31.9113846 24.7433846,32.2584615 24.8196923,32.5981538 C24.864,32.7876923 24.9058462,32.9772308 24.9526154,33.1667692 C24.9993846,33.3563077 25.0313846,33.5581538 25.0732308,33.7526154 C25.1421538,34.0898462 25.216,34.4418462 25.2750769,34.7938462 C25.6804581,37.0049115 25.9533547,39.238225 26.0923077,41.4818462 C26.0905587,41.7652344 26.2057704,42.0367971 26.4107647,42.2324736 C26.6157591,42.42815 26.892384,42.5306132 27.1753846,42.5156923 C27.5012916,42.4809082 27.8037054,42.3297013 28.0270769,42.0898462 C28.2626938,41.8372538 28.4043481,41.511362 28.4283077,41.1667692 C28.5925597,38.7521246 28.6155733,36.329945 28.4972308,33.9126154 C28.4824615,33.5163077 28.4529231,33.1175385 28.4233846,32.7335385 L28.3790769,32.1058462 C28.3593846,31.904 28.3421538,31.6972308 28.3249231,31.4904615 C28.288,31.1064615 28.2535385,30.7027692 28.2018462,30.3163077 C28.0886154,29.2701538 27.9261538,28.1723077 27.6750769,26.7593846 C27.2476529,24.4157748 26.6470317,22.1070859 25.8781538,19.8523077 C25.4867692,18.7126154 25.0461538,17.5975385 24.5710769,16.5390769 C24.3027692,15.9458462 24.0492308,15.4190769 23.7883077,14.9218462 C23.6504615,14.6609231 23.5076923,14.3975385 23.3501538,14.1193846 C23.232,13.9175385 23.1729231,13.8141538 23.104,13.7107692 L22.88,13.3587692 C22.4761798,12.7490791 21.8241901,12.3483396 21.0978462,12.2633846 C20.8815567,12.2405654 20.6632703,12.2446996 20.448,12.2756923 C17.5409231,12.6867692 14.1489231,13.4523077 10.208,15.9950769 C9.73024983,16.2916425 9.32554137,16.692144 9.024,17.1667692 L0.844307692,30.2129231 L0.637538462,30.5550769 C0.0713846154,31.4929231 0.187076923,32.6572308 0.903384615,33.2627692 L8.86153846,40.0221538 C9.10275114,40.2263285 9.42053394,40.3160977 9.73292308,40.2683077 C10.0398192,40.2207389 10.3226086,40.0737229 10.5378462,39.8498462 C10.8125668,39.5836621 10.9865421,39.2304923 11.0301538,38.8504615 C11.0766891,38.4995347 10.979983,38.1446499 10.7618462,37.8658462 L5.31938462,31.2073846 L9.58769231,25.7353846 L9.63446154,25.9446154 C9.73784615,26.4172308 9.84287179,26.8882051 9.94953846,27.3575385 C10.0873846,27.9852308 10.2301538,28.6104615 10.3704615,29.2356923 C10.7593846,30.944 11.1581538,32.7113846 11.4633846,34.4049231 C11.6817512,35.4900471 11.8338276,36.5874633 11.9187692,37.6910769 C12.0467851,39.174907 11.8862932,40.6694876 11.4461538,42.0923077 L11.3156923,42.5083077 L10.8233846,44.0221538 C10.3729231,45.4843077 10.0086154,46.8086154 9.71569231,48.0689231 C9.08550527,50.7322731 8.6145174,53.4307953 8.30523077,56.1501538 C8.00492308,58.7889231 7.83015385,61.472 7.79076923,64.1304615 C7.744,66.7273846 7.82276923,69.3612308 8.01723077,71.9606154 C8.11815385,73.1913846 8.22646154,74.5083077 8.39630769,75.8055385 C8.48246154,76.4898462 8.56615385,77.1150769 8.65969231,77.7132308 L8.81476923,78.6633846 C8.86892308,78.9858462 8.92553846,79.2861538 8.99446154,79.6307692 C9.10692596,80.3615662 9.78949696,80.8635862 10.5206154,80.7532308 C10.9671494,80.6797425 11.3691747,80.4395829 11.6455385,80.0812308 C11.9330567,79.7233917 12.0886434,79.2774924 12.0861538,78.8184615 L12.0689231,76.4381538 C12.0689231,75.9704615 12.0689231,75.5052308 12.0689231,75.0375385 L12.0689231,74.5033846 C12.0886154,73.4449231 12.1058462,72.352 12.1550769,71.2713846 C12.256,68.6670769 12.4233846,66.1366154 12.6473846,63.7489231 C13.184,58.1784615 14.0209231,53.344 15.2049231,48.9673846 C15.488,47.8843077 15.8301538,46.8036923 16.1550769,45.7969231 L16.2978462,45.3513846 L16.3667692,45.7870769 C16.4996923,46.6461538 16.6350769,47.4313846 16.7827692,48.1895385 C16.9969231,49.3169231 17.2455385,50.5427692 17.5704615,52.0467692 L18.4024615,55.8252308 C18.9612308,58.3089231 19.6209231,60.8418462 20.3716923,63.3427692 C21.8049206,68.2193566 23.5951943,72.9838212 25.728,77.5975385 C25.96606,78.13349 26.5346229,78.4425135 27.1138462,78.3507692 C27.2275406,78.3348286 27.3390359,78.3059224 27.4461538,78.2646154" id="Shape"></path>
                    <path d="M14.1292308,12.1550769 C11.0473846,12.5883077 8.54646154,10.2350769 8.55382984,6.912 C8.56123077,3.58892308 11.072,0.526769231 14.1513846,0.0935384615 C17.2307692,-0.339692308 19.7341538,2.01353846 19.7267855,5.34153846 C19.7193846,8.66953846 17.2086154,11.7218462 14.1292308,12.1550769 Z M14.1513846,0.339692308 C11.1901538,0.738461538 8.77784615,3.69230769 8.77291552,6.89230769 C8.768,10.0923077 11.1704615,12.3470769 14.1292308,11.9310769 C17.088,11.5150769 19.5003077,8.57846154 19.5077093,5.38338462 C19.5150769,2.18830769 17.1101538,-0.0738461538 14.1513846,0.342153846" id="Shape"></path>
                </g>
                <g id="fill-2" transform="translate(3.200000, 1.969231)" fill="#66ABFF">
                    <path d="M28.3815385,75.8498462 C28.5461117,76.7567166 28.054757,77.6553109 27.2024615,78.0061538 C27.0953436,78.0474609 26.9838483,78.0763671 26.8701538,78.0923077 C26.2909306,78.184052 25.7223677,77.8750285 25.4843077,77.3390769 C23.351502,72.7253596 21.5612283,67.960895 20.128,63.0843077 C19.3895385,60.5833846 18.7273846,58.0504615 18.1587692,55.5667692 L17.3267692,51.7883077 C17.0018462,50.2843077 16.7532308,49.0584615 16.5390769,47.9310769 C16.3913846,47.1729231 16.256,46.3876923 16.1230769,45.5286154 L16.0541538,45.0929231 L15.9113846,45.5384615 C15.5864615,46.5452308 15.2443077,47.6233846 14.9612308,48.7089231 C13.7772308,53.0855385 12.9403077,57.92 12.4036923,63.4904615 C12.1747692,65.8781538 12.0073846,68.4135385 11.9113846,71.0129231 C11.8646154,72.0935385 11.8449231,73.1864615 11.8252308,74.2449231 L11.8252308,74.7790769 C11.8252308,75.2467692 11.8252308,75.712 11.8252308,76.1796923 L11.8424615,78.5624615 C11.8445859,79.0206824 11.6890086,79.4656857 11.4018462,79.8227692 C11.1293676,80.179043 10.7316245,80.4183929 10.2892308,80.4923077 C9.93519667,80.5511861 9.57230713,80.4662864 9.28113785,80.2564597 C8.98996857,80.0466329 8.79461797,79.7292453 8.73846154,79.3747692 C8.66953846,79.0301538 8.61292308,78.7298462 8.55876923,78.4073846 L8.40369231,77.4572308 C8.31015385,76.8590769 8.22646154,76.2264615 8.14030769,75.5495385 C7.97046154,74.2523077 7.86215385,72.9378462 7.76123077,71.7046154 C7.56676923,69.1052308 7.488,66.4713846 7.53476923,63.8744615 C7.57415385,61.216 7.74892308,58.5329231 8.04923077,55.8941538 C8.3585174,53.1747953 8.82950527,50.4762731 9.45969231,47.8129231 C9.75261538,46.5526154 10.1169231,45.2283077 10.5673846,43.7661538 L11.0596923,42.2523077 L11.1901538,41.8363077 C11.3352289,41.3515394 11.4503185,40.8582986 11.5347692,40.3593846 C11.6855275,39.3897646 11.7218791,38.4057931 11.6430769,37.4276923 C11.5581353,36.3240786 11.4060589,35.2266625 11.1876923,34.1415385 C10.8824615,32.4578462 10.4836923,30.6953846 10.0947692,28.9723077 C9.95446154,28.3470769 9.81169231,27.7218462 9.67384615,27.0941538 C9.56882051,26.6231795 9.46379487,26.1522051 9.35876923,25.6812308 L9.312,25.472 L5.04369231,30.944 L10.4861538,37.6024615 C10.7042907,37.8812653 10.8009968,38.2361501 10.7544615,38.5870769 C10.7108498,38.9671077 10.5368745,39.3202775 10.2621538,39.5864615 C10.0469163,39.8103383 9.76412688,39.9573542 9.45723077,40.0049231 C9.14484163,40.0527131 8.82705883,39.9629439 8.58584615,39.7587692 L0.630153846,32.9969231 C-0.0861538462,32.3864615 -0.201846154,31.2221538 0.364307692,30.2892308 L0.571076923,29.9470769 L8.75076923,16.9009231 C9.03189965,16.4521528 9.40736367,16.0699691 9.85107692,15.7809231 C12.927603,13.7611123 16.426654,12.4743374 20.0787692,12.0196923 C20.3231003,11.9822397 20.571094,11.9747999 20.8172308,11.9975385 C21.5014192,12.0679592 22.1234062,12.4259373 22.528,12.9821538 L22.8233846,13.44 C22.8873846,13.5433846 22.9464615,13.6467692 23.0055385,13.7476923 C23.2221538,14.1267692 23.3649231,14.3901538 23.4978462,14.6510769 C23.7587692,15.1433846 24.0123077,15.6750769 24.2806154,16.2683077 C24.7556923,17.3267692 25.1963077,18.4418462 25.5876923,19.5815385 C26.3565702,21.8363167 26.9571914,24.1450056 27.3846154,26.4886154 C27.6307692,27.9015385 27.7981538,28.9993846 27.9113846,30.0455385 C27.9606154,30.432 27.9975385,30.8356923 28.0344615,31.2196923 C28.0516923,31.4264615 28.0689231,31.6332308 28.0886154,31.8350769 L28.1329231,32.4627692 C28.1624615,32.8467692 28.192,33.2455385 28.2067692,33.6418462 C28.3251117,36.0591758 28.3020981,38.4813554 28.1378462,40.896 C28.1138866,41.2405927 27.9722323,41.5664846 27.7366154,41.8190769 C27.5356403,42.0413875 27.2646136,42.1881936 26.9686154,42.2350769 C26.6744265,42.27082 26.3789455,42.1795113 26.156209,41.9840296 C25.9334726,41.7885478 25.8045869,41.5074165 25.8018462,41.2110769 C25.6671579,38.9660552 25.3983707,36.7310938 24.9969231,34.5181538 C24.9378462,34.1661538 24.864,33.8141538 24.7950769,33.4769231 C24.7532308,33.2824615 24.7138462,33.0904615 24.6744615,32.8910769 C24.6350769,32.6916923 24.5858462,32.512 24.5415385,32.3224615 C24.4652308,31.9852308 24.3864615,31.6356923 24.2953846,31.2984615 C24.0098462,30.1341538 23.6627692,29.024 23.3895385,28.1870769 C23.0153846,27.0523077 22.592,25.9298462 22.1341538,24.8541538 L21.9643077,24.4578462 L21.9249231,24.9206154 C21.7378462,27.0572308 21.6221538,29.0190769 21.5729231,30.9144615 C21.4916923,33.2356923 21.5261538,35.7070769 21.6787692,38.4738462 C21.8313846,41.2406154 22.1710769,43.8892308 22.4664615,45.9273846 C22.6215385,47.0129231 22.8135385,48.2043077 23.0646154,49.6738462 L23.7218462,53.4646154 C24.2141538,56.1501538 24.6695385,58.5895385 25.1421538,60.9230769 C25.6344615,63.3206154 26.1489231,65.7501538 26.72,68.3544615 C26.9070769,69.2045128 27.0949744,70.0553846 27.2836923,70.9070769 C27.6701538,72.5390769 28.0393846,74.2006154 28.3815385,75.8498462 Z" id="Path"></path>
                    <path d="M13.8830769,11.6726154 C10.9292308,12.0886154 8.51938462,9.82892308 8.5267523,6.63384615 C8.53415385,3.43876923 10.944,0.499692308 13.9052308,0.0836923077 C16.8664615,-0.332307692 19.2664615,1.92984615 19.261546,5.12492308 C19.2566154,8.32 16.8418462,11.2566154 13.8830769,11.6726154 Z" id="Path"></path>
                </g>
            </g>
            <path d="M91.2486154,16.2910769 C133.902154,16.2910769 168.479385,50.8683077 168.479385,93.5218462 C168.479385,136.175385 133.892308,170.755077 91.2486154,170.755077 C48.6049231,170.755077 14.0153846,136.177846 14.0153846,93.5218462 C14.0153846,50.8658462 48.5926154,16.2910769 91.2486154,16.2910769 M91.2486154,2.41292308 C47.9136686,2.43759883 10.5896436,32.9754463 1.98429097,75.4473915 C-6.62106167,117.919337 15.8726264,160.577009 55.7803077,177.467692 C101.977698,196.335363 154.757941,174.539067 174.181177,128.572494 C193.604413,82.6059214 172.445997,29.5667473 126.716923,9.59076923 C115.49747,4.83656491 103.433779,2.39603066 91.2486154,2.41538462 L91.2486154,2.41292308 Z" id="Shape" fill="#BBB3B8" fill-rule="nonzero"></path>
            <path d="M158.140923,54.9003077 L170.278769,48.1507692 C154.080347,19.907253 124.02906,2.46744472 91.4701538,2.41538462 L91.2486154,16.2910769 C119.832,16.2910769 144.787077,31.8209231 158.140923,54.9003077 Z" id="Path" fill="#FFBE00" fill-rule="nonzero"></path>
            <line x1="137.724923" y1="13.512" x2="128.988923" y2="28.0966154" id="Path" stroke="#FFFFFF" stroke-width="1.36123077"></line>
            <line x1="91.4652308" y1="2.41538462" x2="91.2486154" y2="16.2910769" id="Path" stroke="#FFFFFF" stroke-width="1.37353846"></line>
            <line x1="100.425231" y1="8.27384615" x2="99.32" y2="16.7144615" id="Path" stroke="#FFFFFF" stroke-width="1.088"></line>
            <line x1="109.286769" y1="9.69907692" x2="107.305231" y2="17.9772308" id="Path" stroke="#FFFFFF" stroke-width="1.088"></line>
            <line x1="117.948923" y1="12.0449231" x2="115.113231" y2="20.0695385" id="Path" stroke="#FFFFFF" stroke-width="1.088"></line>
            <line x1="126.320615" y1="15.2818462" x2="122.660308" y2="22.9667692" id="Path" stroke="#FFFFFF" stroke-width="1.088"></line>
            <line x1="141.820923" y1="24.2836923" x2="136.644308" y2="31.0406154" id="Path" stroke="#FFFFFF" stroke-width="1.088"></line>
            <line x1="148.782154" y1="29.9501538" x2="142.926154" y2="36.1286154" id="Path" stroke="#FFFFFF" stroke-width="1.088"></line>
            <line x1="155.110769" y1="36.3107692" x2="148.641846" y2="41.8443077" id="Path" stroke="#FFFFFF" stroke-width="1.088"></line>
            <line x1="160.742769" y1="43.3015385" x2="153.729846" y2="48.1261538" id="Path" stroke="#FFFFFF" stroke-width="1.088"></line>
            <line x1="170.276308" y1="48.1458462" x2="158.133538" y2="54.9076923" id="Path" stroke="#FFFFFF" stroke-width="1.36123077"></line>
            <path d="M179.184615,30.1692308 L179.184615,31.8307692 L179.233846,31.8307692 C179.648168,31.2225161 180.196347,30.7172813 180.836308,30.3538462 C181.494764,29.9975574 182.234235,29.8177779 182.982769,29.832 C183.715517,29.822744 184.441147,29.9766145 185.107077,30.2824615 C185.774624,30.6123252 186.295117,31.1793381 186.566769,31.8726154 C186.960575,31.3057224 187.462491,30.8222101 188.043692,30.4498462 C188.704233,30.0280639 189.475591,29.8129408 190.259077,29.832 C190.869104,29.8286633 191.476544,29.9115336 192.063385,30.0781538 C192.589181,30.2211082 193.076214,30.4801862 193.488615,30.8363077 C193.903453,31.2103523 194.223249,31.6778115 194.421538,32.2 C194.658058,32.8494029 194.770773,33.5373814 194.753846,34.2283077 L194.753846,42.44 L191.384,42.44 L191.384,35.4861538 C191.384,35.0750769 191.366769,34.6886154 191.334769,34.3243077 C191.312721,33.9932413 191.223969,33.6700495 191.073846,33.3741538 C190.930549,33.1048724 190.712602,32.8826526 190.446154,32.7341538 C190.098034,32.5558088 189.709544,32.4709857 189.318769,32.488 C188.916797,32.469807 188.517754,32.5644519 188.166769,32.7612308 C187.880643,32.9363576 187.643529,33.1810939 187.477538,33.4726154 C187.307078,33.7819552 187.194467,34.1197906 187.145231,34.4695385 C187.090987,34.8428811 187.06384,35.2196605 187.064,35.5969231 L187.064,42.44 L183.691692,42.44 L183.691692,35.5476923 C183.691692,35.1833846 183.691692,34.824 183.669538,34.4670769 C183.656501,34.1300484 183.588315,33.797435 183.467692,33.4824615 C183.350898,33.1848924 183.143331,32.9316778 182.874462,32.7587692 C182.498825,32.5517379 182.071647,32.4569043 181.643692,32.4855385 C181.430732,32.4950318 181.219827,32.5314231 181.016,32.5938462 C180.737199,32.6729423 180.478084,32.8096276 180.255385,32.9950769 C179.983487,33.2289384 179.768767,33.5219692 179.627692,33.8516923 C179.435827,34.3135583 179.346792,34.8116515 179.366769,35.3113846 L179.366769,42.44 L175.994462,42.44 L175.994462,30.1692308 L179.184615,30.1692308 Z" id="Path" fill="#000000" fill-rule="nonzero"></path>
            <path d="M183.578125,22 L183.578125,0.671875 L179.09375,0.671875 L174.046875,4.25 L174.046875,8.484375 L178.875,5.09375 L179.09375,5.09375 L179.09375,22 L183.578125,22 Z M197.1875,22.40625 C202.03125,22.40625 205.328125,19.421875 205.328125,14.78125 C205.328125,10.28125 202.140625,7.828125 198.484375,7.828125 C196.0625,7.828125 194.609375,8.96875 194.1875,9.65625 L193.96875,9.65625 L194.40625,4.40625 L204.109375,4.40625 L204.109375,0.65625 L190.828125,0.65625 L189.953125,13.171875 L193.90625,13.171875 C194.34375,12.40625 195.421875,11.34375 197.265625,11.34375 C199.3125,11.34375 200.984375,12.765625 200.984375,14.9375 C200.984375,17.3125 199.21875,18.734375 197.25,18.734375 C195.53125,18.734375 193.921875,17.875 193.625,16.359375 L189.515625,16.359375 C189.625,19.765625 192.625,22.40625 197.1875,22.40625 Z" id="15" fill="#000000" fill-rule="nonzero" opacity="0"></path>
            <path d="M197.505846,28.2615385 L197.505846,25.4947692 L200.875692,25.4947692 L200.875692,28.2615385 L197.505846,28.2615385 Z M200.875692,30.1593846 L200.875692,42.44 L197.505846,42.44 L197.505846,30.1692308 L200.875692,30.1593846 Z" id="Shape" fill="#000000" fill-rule="nonzero"></path>
            <path d="M206.739077,30.1692308 L206.739077,31.8775385 L206.810462,31.8775385 C207.196204,31.2050375 207.775062,30.6639129 208.472,30.3243077 C209.121644,30.0045512 209.835324,29.8362304 210.559385,29.832 C211.315011,29.8071546 212.068046,29.9326604 212.774769,30.2012308 C213.310338,30.4139617 213.780605,30.7636909 214.138462,31.2153846 C214.485293,31.6877484 214.723959,32.2306302 214.837538,32.8055385 C214.977136,33.48911 215.044787,34.1854178 215.039385,34.8830769 L215.039385,42.44 L211.676923,42.44 L211.676923,35.5107692 C211.676923,34.4966154 211.516923,33.7409231 211.201846,33.2436923 C210.886769,32.7464615 210.323077,32.5052308 209.515692,32.5052308 C208.596718,32.5052308 207.932103,32.7784615 207.521846,33.3249231 C207.11159,33.8713846 206.906462,34.7690256 206.906462,36.0178462 L206.906462,42.44 L203.534154,42.44 L203.534154,30.1692308 L206.739077,30.1692308 Z" id="Path" fill="#000000" fill-rule="nonzero"></path>
        </g>
        <path d="M280.578125,49 L280.578125,27.671875 L276.09375,27.671875 L271.046875,31.25 L271.046875,35.484375 L275.875,32.09375 L276.09375,32.09375 L276.09375,49 L280.578125,49 Z M294.1875,49.40625 C299.03125,49.40625 302.328125,46.421875 302.328125,41.78125 C302.328125,37.28125 299.140625,34.828125 295.484375,34.828125 C293.0625,34.828125 291.609375,35.96875 291.1875,36.65625 L290.96875,36.65625 L291.40625,31.40625 L301.109375,31.40625 L301.109375,27.65625 L287.828125,27.65625 L286.953125,40.171875 L290.90625,40.171875 C291.34375,39.40625 292.421875,38.34375 294.265625,38.34375 C296.3125,38.34375 297.984375,39.765625 297.984375,41.9375 C297.984375,44.3125 296.21875,45.734375 294.25,45.734375 C292.53125,45.734375 290.921875,44.875 290.625,43.359375 L286.515625,43.359375 C286.625,46.765625 289.625,49.40625 294.1875,49.40625 Z" id="15" fill="#000000" fill-rule="nonzero"></path>
    </g>
</svg>